<svg xmlns="http://www.w3.org/2000/svg" viewBox="0 0 900 620" fill="none">
  <defs>
    <linearGradient id="limeGrad" x1="0" y1="0" x2="1" y2="1">
      <stop offset="0%" stop-color="#BFFF00"/>
      <stop offset="100%" stop-color="#7ACC00"/>
    </linearGradient>
    <linearGradient id="redGrad" x1="0" y1="0" x2="1" y2="1">
      <stop offset="0%" stop-color="#FF3B3B"/>
      <stop offset="100%" stop-color="#CC2020"/>
    </linearGradient>
  </defs>

  <rect width="900" height="620" rx="12" fill="#0A0A0A"/>

  <!-- Title -->
  <text x="450" y="36" text-anchor="middle" font-family="system-ui,sans-serif" font-size="11" fill="#555" letter-spacing="0.2em" font-weight="500">SYSTEM ARCHITECTURE</text>

  <!-- Human Entry Box -->
  <rect x="30" y="56" width="410" height="250" rx="8" fill="none" stroke="#333" stroke-width="1"/>
  <text x="50" y="78" font-family="system-ui,sans-serif" font-size="10" fill="#666" letter-spacing="0.15em" font-weight="600">HUMAN ENTRY</text>

  <!-- Human node -->
  <rect x="160" y="96" width="120" height="36" rx="6" fill="#1A1A1A" stroke="#BFFF00" stroke-width="1.5"/>
  <text x="220" y="119" text-anchor="middle" font-family="monospace" font-size="11" fill="#BFFF00" font-weight="600">Human speaks</text>

  <!-- Arrow down -->
  <line x1="220" y1="132" x2="220" y2="152" stroke="#555" stroke-width="1"/>
  <polygon points="216,150 220,158 224,150" fill="#555"/>

  <!-- Front Door -->
  <rect x="140" y="158" width="160" height="36" rx="6" fill="#1A1A1A" stroke="#FFF" stroke-width="1"/>
  <text x="220" y="176" text-anchor="middle" font-family="monospace" font-size="10" fill="#FFF" font-weight="500">ritual/SKILL.md</text>
  <text x="220" y="189" text-anchor="middle" font-family="system-ui,sans-serif" font-size="8" fill="#666" font-style="italic">intent classification</text>

  <!-- Route arrows -->
  <!-- Build -->
  <line x1="180" y1="194" x2="80" y2="236" stroke="#BFFF00" stroke-width="1" opacity="0.6"/>
  <rect x="40" y="230" width="100" height="30" rx="5" fill="#0F1A0F" stroke="#BFFF00" stroke-width="1"/>
  <text x="90" y="249" text-anchor="middle" font-family="monospace" font-size="9" fill="#BFFF00">builder</text>
  <text x="135" y="225" font-family="system-ui,sans-serif" font-size="8" fill="#BFFF00" opacity="0.7">build</text>

  <!-- Debug -->
  <line x1="220" y1="194" x2="195" y2="236" stroke="#FF3B3B" stroke-width="1" opacity="0.6"/>
  <rect x="155" y="230" width="100" height="30" rx="5" fill="#1A0F0F" stroke="#FF3B3B" stroke-width="1"/>
  <text x="205" y="249" text-anchor="middle" font-family="monospace" font-size="9" fill="#FF3B3B">debugger</text>
  <text x="195" y="225" font-family="system-ui,sans-serif" font-size="8" fill="#FF3B3B" opacity="0.7">debug</text>

  <!-- Learn -->
  <line x1="260" y1="194" x2="310" y2="236" stroke="#888" stroke-width="1" opacity="0.5"/>
  <rect x="270" y="230" width="100" height="30" rx="5" fill="#1A1A1A" stroke="#555" stroke-width="1"/>
  <text x="320" y="249" text-anchor="middle" font-family="monospace" font-size="9" fill="#999">overview</text>
  <text x="300" y="225" font-family="system-ui,sans-serif" font-size="8" fill="#888" opacity="0.7">learn</text>

  <!-- Agent Entry Box -->
  <rect x="460" y="56" width="410" height="250" rx="8" fill="none" stroke="#333" stroke-width="1"/>
  <text x="480" y="78" font-family="system-ui,sans-serif" font-size="10" fill="#666" letter-spacing="0.15em" font-weight="600">AGENT ENTRY</text>

  <!-- Bootstrap node -->
  <rect x="570" y="96" width="190" height="40" rx="6" fill="#1A1A1A" stroke="#FF6600" stroke-width="1.5"/>
  <text x="665" y="115" text-anchor="middle" font-family="monospace" font-size="11" fill="#FF6600" font-weight="600">bootstrap.md</text>
  <text x="665" y="128" text-anchor="middle" font-family="system-ui,sans-serif" font-size="8" fill="#996633" font-style="italic">meta-protocol activation</text>

  <!-- Connection lines from human to agent -->
  <line x1="90" y1="260" x2="570" y2="116" stroke="#BFFF00" stroke-width="0.5" stroke-dasharray="4,4" opacity="0.3"/>
  <line x1="205" y1="260" x2="570" y2="116" stroke="#FF3B3B" stroke-width="0.5" stroke-dasharray="4,4" opacity="0.3"/>
  <line x1="320" y1="260" x2="570" y2="116" stroke="#888" stroke-width="0.5" stroke-dasharray="4,4" opacity="0.2"/>

  <!-- Rules list -->
  <g font-family="monospace" font-size="9" fill="#888">
    <rect x="490" y="150" width="350" height="114" rx="4" fill="#111" stroke="#222" stroke-width="0.5"/>
    <text x="505" y="167" fill="#FF6600" font-size="8" letter-spacing="0.1em">PROTOCOLS</text>
    <text x="505" y="183" fill="#666">0</text><text x="520" y="183" fill="#999">Track Cost</text>
    <text x="665" y="183" fill="#666">1</text><text x="680" y="183" fill="#999">Distrust Priors</text>
    <text x="505" y="198" fill="#666">2</text><text x="520" y="198" fill="#999">Lazy Elicitation</text>
    <text x="665" y="198" fill="#666">3</text><text x="680" y="198" fill="#999">Interleave Build+Debug</text>
    <text x="505" y="213" fill="#666">4</text><text x="520" y="213" fill="#999">Circuit Breaker</text>
    <text x="665" y="213" fill="#666">5</text><text x="680" y="213" fill="#999">Search Before Asking</text>
    <text x="505" y="228" fill="#666">6</text><text x="520" y="228" fill="#999">Ask at Forks</text>
    <text x="665" y="228" fill="#666">7</text><text x="680" y="228" fill="#999">Verify Non-Interactively</text>
    <text x="505" y="250" fill="#444" font-size="8" font-style="italic">loaded automatically by every entry point</text>
  </g>

  <!-- Alpha Build Box -->
  <rect x="30" y="310" width="410" height="280" rx="8" fill="none" stroke="#1A3A1A" stroke-width="1"/>
  <text x="50" y="332" font-family="system-ui,sans-serif" font-size="10" fill="#BFFF00" letter-spacing="0.15em" font-weight="600" opacity="0.7">alpha BUILD SKILLS</text>

  <g font-family="monospace" font-size="9">
    <rect x="50" y="346" width="105" height="26" rx="4" fill="#0F1A0F" stroke="#2A4A2A" stroke-width="0.5"/>
    <text x="102" y="363" text-anchor="middle" fill="#BFFF00" opacity="0.8">contracts</text>

    <rect x="165" y="346" width="105" height="26" rx="4" fill="#0F1A0F" stroke="#2A4A2A" stroke-width="0.5"/>
    <text x="217" y="363" text-anchor="middle" fill="#BFFF00" opacity="0.8">frontend</text>

    <rect x="280" y="346" width="105" height="26" rx="4" fill="#0F1A0F" stroke="#2A4A2A" stroke-width="0.5"/>
    <text x="332" y="363" text-anchor="middle" fill="#BFFF00" opacity="0.8">backend</text>

    <rect x="50" y="382" width="105" height="26" rx="4" fill="#0F1A0F" stroke="#2A4A2A" stroke-width="0.5"/>
    <text x="102" y="399" text-anchor="middle" fill="#BFFF00" opacity="0.8">design</text>

    <rect x="165" y="382" width="105" height="26" rx="4" fill="#0F1A0F" stroke="#2A4A2A" stroke-width="0.5"/>
    <text x="217" y="399" text-anchor="middle" fill="#BFFF00" opacity="0.8">deploy</text>

    <rect x="280" y="382" width="105" height="26" rx="4" fill="#0F1A0F" stroke="#2A4A2A" stroke-width="0.5"/>
    <text x="332" y="399" text-anchor="middle" fill="#BFFF00" opacity="0.8">wallet</text>

    <rect x="50" y="422" width="160" height="26" rx="4" fill="#0F1A0F" stroke="#2A4A2A" stroke-width="0.5"/>
    <text x="130" y="439" text-anchor="middle" fill="#BFFF00" opacity="0.8">http · llm · agents</text>

    <rect x="220" y="422" width="165" height="26" rx="4" fill="#0F1A0F" stroke="#2A4A2A" stroke-width="0.5"/>
    <text x="302" y="439" text-anchor="middle" fill="#BFFF00" opacity="0.8">scheduler · secrets</text>

    <rect x="50" y="458" width="160" height="26" rx="4" fill="#0F1A0F" stroke="#2A4A2A" stroke-width="0.5"/>
    <text x="130" y="475" text-anchor="middle" fill="#BFFF00" opacity="0.8">passkey · multimodal</text>

    <rect x="220" y="458" width="165" height="26" rx="4" fill="#0F1A0F" stroke="#2A4A2A" stroke-width="0.5"/>
    <text x="302" y="475" text-anchor="middle" fill="#BFFF00" opacity="0.8">x402 · longrunning</text>
  </g>

  <text x="50" y="510" font-family="system-ui,sans-serif" font-size="8" fill="#444" font-style="italic">loaded conditionally based on user goal -> 3-6 per project</text>

  <!-- Inspiration (for lost/ambiguous users) -->
  <rect x="270" y="266" width="100" height="32" rx="5" fill="#1A1008" stroke="#FF6600" stroke-width="0.8"/>
  <text x="320" y="280" text-anchor="middle" font-family="monospace" font-size="8" fill="#FF6600">inspiration</text>
  <text x="320" y="292" text-anchor="middle" font-family="system-ui,sans-serif" font-size="7" fill="#996633" font-style="italic">live trend search</text>

  <!-- Projection (between front door and builder) -->
  <rect x="40" y="266" width="100" height="32" rx="5" fill="#1A1008" stroke="#FF6600" stroke-width="0.8"/>
  <text x="90" y="280" text-anchor="middle" font-family="monospace" font-size="8" fill="#FF6600">projection</text>
  <text x="90" y="292" text-anchor="middle" font-family="system-ui,sans-serif" font-size="7" fill="#996633" font-style="italic">idea → Ritual spec</text>

  <!-- Arrow from builder through projection to alpha -->
  <line x1="90" y1="260" x2="90" y2="266" stroke="#BFFF00" stroke-width="1" opacity="0.4"/>
  <line x1="90" y1="298" x2="90" y2="310" stroke="#BFFF00" stroke-width="1" opacity="0.4"/>
  <polygon points="86,308 90,316 94,308" fill="#BFFF00" opacity="0.4"/>

  <!-- Beta Debug Box -->
  <rect x="460" y="310" width="410" height="280" rx="8" fill="none" stroke="#3A1A1A" stroke-width="1"/>
  <text x="480" y="332" font-family="system-ui,sans-serif" font-size="10" fill="#FF3B3B" letter-spacing="0.15em" font-weight="600" opacity="0.7">beta DEBUG SKILLS</text>

  <g font-family="monospace" font-size="9">
    <rect x="480" y="346" width="160" height="26" rx="4" fill="#1A0F0F" stroke="#4A2A2A" stroke-width="0.5"/>
    <text x="560" y="363" text-anchor="middle" fill="#FF3B3B" opacity="0.8">debugger agent</text>

    <rect x="650" y="346" width="200" height="26" rx="4" fill="#1A0F0F" stroke="#4A2A2A" stroke-width="0.5"/>
    <text x="750" y="363" text-anchor="middle" fill="#FF3B3B" opacity="0.8">triage -> quick-match</text>

    <rect x="480" y="382" width="200" height="26" rx="4" fill="#1A0F0F" stroke="#4A2A2A" stroke-width="0.5"/>
    <text x="580" y="399" text-anchor="middle" fill="#FF3B3B" opacity="0.8">smoke tests -> diagnosis</text>

    <rect x="690" y="382" width="160" height="26" rx="4" fill="#1A0F0F" stroke="#4A2A2A" stroke-width="0.5"/>
    <text x="770" y="399" text-anchor="middle" fill="#FF3B3B" opacity="0.8">common issues</text>

    <rect x="480" y="418" width="160" height="26" rx="4" fill="#1A0F0F" stroke="#4A2A2A" stroke-width="0.5"/>
    <text x="560" y="435" text-anchor="middle" fill="#FF3B3B" opacity="0.8">system topology</text>

    <rect x="650" y="418" width="200" height="26" rx="4" fill="#1A0F0F" stroke="#4A2A2A" stroke-width="0.5"/>
    <text x="750" y="435" text-anchor="middle" fill="#FF3B3B" opacity="0.8">diagnostic integrity</text>

    <rect x="480" y="454" width="160" height="26" rx="4" fill="#1A0F0F" stroke="#4A2A2A" stroke-width="0.5"/>
    <text x="560" y="471" text-anchor="middle" fill="#FF3B3B" opacity="0.8">testing</text>
  </g>

  <text x="480" y="510" font-family="system-ui,sans-serif" font-size="8" fill="#444" font-style="italic">loaded reactively when failures occur -> sequential pipeline</text>

  <!-- Arrow from debugger to beta -->
  <line x1="560" y1="260" x2="560" y2="310" stroke="#FF3B3B" stroke-width="1" opacity="0.4"/>
  <polygon points="556,308 560,316 564,308" fill="#FF3B3B" opacity="0.4"/>

  <!-- Footer -->
  <text x="450" y="600" text-anchor="middle" font-family="system-ui,sans-serif" font-size="9" fill="#333">RITUAL CHAIN · 1979 · ~350ms blocks (conservative baseline) · TEE-verified execution</text>
</svg>
